{
  "accessors": [
    {
      "bufferView": 2,
      "componentType": 5126,
      "count": 2140,
      "max": [
        14.808364868164063,
        105.22311401367188,
        18.764677047729492
      ],
      "min": [
        -15.112777709960938,
        29.591413497924805,
        -13.899969100952148
      ],
      "type": "VEC3"
    },
    {
      "bufferView": 2,
      "byteOffset": 25680,
      "componentType": 5126,
      "count": 2140,
      "max": [
        0.9999231100082397,
        0.9999229907989502,
        0.9999846816062927
      ],
      "min": [
        -0.9999222159385681,
        -0.9997968673706055,
        -0.9999844431877136
      ],
      "type": "VEC3"
    },
    {
      "bufferView": 1,
      "componentType": 5126,
      "count": 2140,
      "max": [
        0.9892578125,
        0.9911651611328125
      ],
      "min": [
        0.01323699951171875,
        0.0078125
      ],
      "type": "VEC2"
    },
    {
      "bufferView": 1,
      "byteOffset": 17120,
      "componentType": 5126,
      "count": 2140,
      "max": [
        0.607246458530426,
        1.3140736818313599
      ],
      "min": [
        -0.2486816942691803,
        0.3677624464035034
      ],
      "type": "VEC2"
    },
    {
      "bufferView": 0,
      "componentType": 5125,
      "count": 9564,
      "type": "SCALAR"
    },
    {
      "bufferView": 2,
      "byteOffset": 51360,
      "componentType": 5126,
      "count": 5817,
      "max": [
        22.538955688476563,
        69.21826171875,
        27.36181640625
      ],
      "min": [
        -22.849563598632813,
        0.014781951904296875,
        -7.826077461242676
      ],
      "type": "VEC3"
    },
    {
      "bufferView": 2,
      "byteOffset": 121164,
      "componentType": 5126,
      "count": 5817,
      "max": [
        0.9999850392341614,
        0.999984860420227,
        0.999984860420227
      ],
      "min": [
        -0.9999846816062927,
        -0.9999845027923584,
        -0.999984622001648
      ],
      "type": "VEC3"
    },
    {
      "bufferView": 3,
      "componentType": 5126,
      "count": 5817,
      "max": [
        1.0,
        1.0,
        1.0,
        1.0
      ],
      "min": [
        0.42352941632270813,
        0.0,
        0.0,
        1.0
      ],
      "type": "VEC4"
    },
    {
      "bufferView": 1,
      "byteOffset": 34240,
      "componentType": 5126,
      "count": 5817,
      "max": [
        0.99365234375,
        0.9967422485351563
      ],
      "min": [
        0.0004436969757080078,
        0.00439453125
      ],
      "type": "VEC2"
    },
    {
      "bufferView": 1,
      "byteOffset": 80776,
      "componentType": 5126,
      "count": 5817,
      "max": [
        0.986328125,
        0.96173095703125
      ],
      "min": [
        0.005126953125,
        0.00390625
      ],
      "type": "VEC2"
    },
    {
      "bufferView": 0,
      "byteOffset": 38256,
      "componentType": 5125,
      "count": 22062,
      "type": "SCALAR"
    }
  ],
  "asset": {
    "extras": {
      "author": "Ali Janjua (https://sketchfab.com/janjuaali77)",
      "license": "CC-BY-4.0 (http://creativecommons.org/licenses/by/4.0/)",
      "source": "https://sketchfab.com/3d-models/3d-lego-peely-character-e5da1c8f4a844895a39f4baa5dbe376b",
      "title": "3D Lego-Peely Character"
    },
    "generator": "Sketchfab-16.32.0",
    "version": "2.0"
  },
  "bufferViews": [
    {
      "buffer": 0,
      "byteLength": 126504,
      "name": "floatBufferViews",
      "target": 34963
    },
    {
      "buffer": 0,
      "byteLength": 127312,
      "byteOffset": 126504,
      "byteStride": 8,
      "name": "floatBufferViews",
      "target": 34962
    },
    {
      "buffer": 0,
      "byteLength": 190968,
      "byteOffset": 253816,
      "byteStride": 12,
      "name": "floatBufferViews",
      "target": 34962
    },
    {
      "buffer": 0,
      "byteLength": 93072,
      "byteOffset": 444784,
      "byteStride": 16,
      "name": "floatBufferViews",
      "target": 34962
    }
  ],
  "buffers": [
    {
      "byteLength": 537856,
      "uri": "scene.bin"
    }
  ],
  "images": [
    {
      "uri": "textures/PeelyHead_baseColor.png"
    },
    {
      "uri": "textures/PeelyHead_metallicRoughness.png"
    },
    {
      "uri": "textures/PeelyBody_baseColor.png"
    },
    {
      "uri": "textures/PeelyBody_metallicRoughness.png"
    }
  ],
  "materials": [
    {
      "doubleSided": true,
      "name": "PeelyHead",
      "pbrMetallicRoughness": {
        "baseColorTexture": {
          "index": 0
        },
        "metallicRoughnessTexture": {
          "index": 1
        }
      }
    },
    {
      "doubleSided": true,
      "name": "PeelyBody",
      "pbrMetallicRoughness": {
        "baseColorTexture": {
          "index": 2
        },
        "metallicRoughnessTexture": {
          "index": 3
        }
      }
    }
  ],
  "meshes": [
    {
      "name": "SKM_HeadAcc_BananaA_LOD0.mo_PeelyHead_0",
      "primitives": [
        {
          "attributes": {
            "NORMAL": 1,
            "POSITION": 0,
            "TEXCOORD_0": 2,
            "TEXCOORD_1": 3
          },
          "indices": 4,
          "material": 0,
          "mode": 4
        }
      ]
    },
    {
      "name": "SKM_Figure_Mutable_LOD0.mo.001_PeelyBody_0",
      "primitives": [
        {
          "attributes": {
            "COLOR_0": 7,
            "NORMAL": 6,
            "POSITION": 5,
            "TEXCOORD_0": 8,
            "TEXCOORD_1": 9
          },
          "indices": 10,
          "material": 1,
          "mode": 4
        }
      ]
    }
  ],
  "nodes": [
    {
      "children": [
        1
      ],
      "matrix": [
        1.0,
        0.0,
        0.0,
        0.0,
        0.0,
        2.220446049250313e-16,
        -1.0,
        0.0,
        0.0,
        1.0,
        2.220446049250313e-16,
        0.0,
        0.0,
        0.0,
        0.0,
        1.0
      ],
      "name": "Sketchfab_model"
    },
    {
      "children": [
        2
      ],
      "matrix": [
        0.009999999776482582,
        0.0,
        0.0,
        0.0,
        0.0,
        0.0,
        0.009999999776482582,
        0.0,
        0.0,
        -0.009999999776482582,
        0.0,
        0.0,
        0.0,
        0.0,
        0.0,
        1.0
      ],
      "name": "17142b856e8247f3aefcbb0c6dbdbfe3.fbx"
    },
    {
      "children": [
        3
      ],
      "name": "RootNode"
    },
    {
      "children": [
        4,
        6
      ],
      "name": "peely"
    },
    {
      "children": [
        5
      ],
      "name": "SKM_HeadAcc_BananaA_LOD0.mo"
    },
    {
      "mesh": 0,
      "name": "SKM_HeadAcc_BananaA_LOD0.mo_PeelyHead_0"
    },
    {
      "children": [
        7
      ],
      "name": "SKM_Figure_Mutable_LOD0.mo.001"
    },
    {
      "mesh": 1,
      "name": "SKM_Figure_Mutable_LOD0.mo.001_PeelyBody_0"
    }
  ],
  "samplers": [
    {
      "magFilter": 9729,
      "minFilter": 9987,
      "wrapS": 10497,
      "wrapT": 10497
    }
  ],
  "scene": 0,
  "scenes": [
    {
      "name": "Sketchfab_Scene",
      "nodes": [
        0
      ]
    }
  ],
  "textures": [
    {
      "sampler": 0,
      "source": 0
    },
    {
      "sampler": 0,
      "source": 1
    },
    {
      "sampler": 0,
      "source": 2
    },
    {
      "sampler": 0,
      "source": 3
    }
  ]
}
